<?xml version="1.0" encoding="utf-8"?>
<!-- Generator: Adobe Illustrator 24.0.1, SVG Export Plug-In . SVG Version: 6.00 Build 0)  -->
<svg version="1.1" id="_x30_" xmlns="http://www.w3.org/2000/svg" xmlns:xlink="http://www.w3.org/1999/xlink" x="0px" y="0px"
	 viewBox="0 0 1138.5 425.2" style="enable-background:new 0 0 1138.5 425.2;" xml:space="preserve">
<style type="text/css">
	.st0{fill:none;}
	.st1{fill:#F7E500;}
	.st2{fill:#232323;}
	.st3{fill:none;stroke:#333333;stroke-width:51.0236;stroke-linecap:square;stroke-miterlimit:10;}
	.st4{fill:none;stroke:#333333;stroke-width:51.0236;stroke-miterlimit:10;}
	.st5{fill:none;stroke:#333333;stroke-width:42.5197;stroke-miterlimit:10;}
</style>
<rect x="-1130.4" y="-42.8" class="st0" width="480" height="480"/>
<g id="LINE_2_">
	<g>
		<polygon class="st1" points="418.4,221.2 401.2,418.4 204,401.2 24,221.2 6.8,24 204,6.8 221.2,204 		"/>
		<path class="st2" d="M406.9,425.2l-205.7-18l-1.6-1.6L18,224.1L0,18.3L209.6,0L227,198.2l198.2,17.4L406.9,425.2z M206.8,395.1
			l188.7,16.5l16.2-184.7l-196.2-17.2L198.3,13.5L13.5,29.7L30,218.4L206.8,395.1z"/>
	</g>
</g>
<line class="st3" x1="938.6" y1="321.5" x2="938.6" y2="103.7"/>
<line class="st3" x1="524.6" y1="321.5" x2="524.6" y2="103.7"/>
<polyline class="st4" points="1138.4,103.7 1053.4,103.7 1053.4,321.5 1138.5,321.5 "/>
<line class="st5" x1="653.5" y1="185.4" x2="724.4" y2="185.4"/>
<line class="st5" x1="1053.4" y1="185.4" x2="1124.3" y2="185.4"/>
<line class="st4" x1="524.6" y1="321.5" x2="609.6" y2="321.5"/>
<path class="st4" d="M738.6,103.7h-85l0,217.9c0,0,85,0,85,0s42.5,0,42.5,0c9.8,0,19.1-2,27.6-5.6s16.1-8.8,22.5-15.2
	c6.4-6.4,11.6-14,15.2-22.5s5.6-17.8,5.6-27.6s-2-19.1-5.6-27.6c-3.6-8.5-8.8-16.1-15.2-22.5s-14-11.6-22.5-15.2
	c-5.1-2.2-9.7-5.3-13.5-9.1s-7-8.4-9.1-13.5c-2.2-5.1-3.3-10.7-3.3-16.6s1.2-11.5,3.3-16.6c2.2-5.1,5.3-9.7,9.1-13.5s8.4-7,13.5-9.1
	s10.7-3.3,16.6-3.3h36.9h147.4"/>
</svg>
