<?xml version="1.0" encoding="utf-8"?>
<!-- Generator: Adobe Illustrator 24.0.1, SVG Export Plug-In . SVG Version: 6.00 Build 0)  -->
<svg version="1.1" id="Слой_1" xmlns="http://www.w3.org/2000/svg" xmlns:xlink="http://www.w3.org/1999/xlink" x="0px" y="0px"
	 viewBox="0 0 100 100" style="enable-background:new 0 0 100 100;" xml:space="preserve">
<style type="text/css">
	.st0{fill:none;}
</style>
<rect x="20" class="st0" width="20" height="20"/>
<rect x="40" class="st0" width="20" height="20"/>
<rect x="60" class="st0" width="20" height="20"/>
<rect x="80" class="st0" width="20" height="20"/>
<rect x="0" y="20" class="st0" width="20" height="20"/>
<rect x="20" y="20" class="st0" width="20" height="20"/>
<rect x="40" y="20" class="st0" width="20" height="20"/>
<rect x="60" y="20" class="st0" width="20" height="20"/>
<rect x="80" y="20" class="st0" width="20" height="20"/>
<rect x="0" y="40" class="st0" width="20" height="20"/>
<rect x="20" y="40" class="st0" width="20" height="20"/>
<rect x="40" y="40" class="st0" width="20" height="20"/>
<rect x="60" y="40" class="st0" width="20" height="20"/>
<rect x="80" y="40" class="st0" width="20" height="20"/>
<rect y="60" class="st0" width="20" height="20"/>
<rect x="20" y="60" class="st0" width="20" height="20"/>
<rect x="40" y="60" class="st0" width="20" height="20"/>
<rect x="60" y="60" class="st0" width="20" height="20"/>
<rect x="80" y="60" class="st0" width="20" height="20"/>
<rect y="80" class="st0" width="20" height="20"/>
<rect x="20" y="80" class="st0" width="20" height="20"/>
<rect x="40" y="80" class="st0" width="20" height="20"/>
<rect x="60" y="80" class="st0" width="20" height="20"/>
<g>
	<rect width="20" height="20"/>
	<rect x="80" y="80" width="20" height="20"/>
</g>
</svg>
