<svg xmlns="http://www.w3.org/2000/svg" xmlns:xlink="http://www.w3.org/1999/xlink" version="1.1" x="0px" y="0px" viewBox="0 0 100 100" style="enable-background:new 0 0 100 100;" xml:space="preserve" fill="#f9e702"><rect x="0" y="0" width="20" height="20" fill="" shape-rendering="crispEdges"/><rect x="20" y="0" width="20" height="20" fill="" shape-rendering="crispEdges"/><rect x="40" y="0" width="20" height="20" fill="none" shape-rendering="crispEdges"/><rect x="60" y="0" width="20" height="20" fill="" shape-rendering="crispEdges"/><rect x="80" y="0" width="20" height="20" fill="" shape-rendering="crispEdges"/><rect x="0" y="20" width="20" height="20" fill="" shape-rendering="crispEdges"/><rect x="20" y="20" width="20" height="20" fill="" shape-rendering="crispEdges"/><rect x="40" y="20" width="20" height="20" fill="none" shape-rendering="crispEdges"/><rect x="60" y="20" width="20" height="20" fill="" shape-rendering="crispEdges"/><rect x="80" y="20" width="20" height="20" fill="" shape-rendering="crispEdges"/><rect x="0" y="40" width="20" height="20" fill="" shape-rendering="crispEdges"/><rect x="20" y="40" width="20" height="20" fill="" shape-rendering="crispEdges"/><rect x="40" y="40" width="20" height="20" fill="none" shape-rendering="crispEdges"/><rect x="60" y="40" width="20" height="20" fill="" shape-rendering="crispEdges"/><rect x="80" y="40" width="20" height="20" fill="" shape-rendering="crispEdges"/><rect x="0" y="60" width="20" height="20" fill="" shape-rendering="crispEdges"/><rect x="20" y="60" width="20" height="20" fill="" shape-rendering="crispEdges"/><rect x="40" y="60" width="20" height="20" fill="" shape-rendering="crispEdges"/><rect x="60" y="60" width="20" height="20" fill="" shape-rendering="crispEdges"/><rect x="80" y="60" width="20" height="20" fill="" shape-rendering="crispEdges"/><rect x="0" y="80" width="20" height="20" fill="" shape-rendering="crispEdges"/><rect x="20" y="80" width="20" height="20" fill="" shape-rendering="crispEdges"/><rect x="40" y="80" width="20" height="20" fill="none" shape-rendering="crispEdges"/><rect x="60" y="80" width="20" height="20" fill="" shape-rendering="crispEdges"/><rect x="80" y="80" width="20" height="20" fill="" shape-rendering="crispEdges"/></svg>