<?xml version="1.0" encoding="utf-8"?>
<!-- Generator: Adobe Illustrator 24.0.1, SVG Export Plug-In . SVG Version: 6.00 Build 0)  -->
<svg version="1.1" id="_x30_" xmlns="http://www.w3.org/2000/svg" xmlns:xlink="http://www.w3.org/1999/xlink" x="0px" y="0px" viewBox="0 0 1303.9 510.2" style="enable-background:new 0 0 1303.9 510.2;" xml:space="preserve">
<style>
	.st0{fill:none;}
	.st1{fill:none;stroke:#232323;stroke-width:22.6772;stroke-linecap:square;stroke-miterlimit:10;}
	.st2{fill:none;stroke:#232323;stroke-width:56.6929;stroke-linecap:square;stroke-miterlimit:10;}
	.st3{fill:none;stroke:#232323;stroke-width:56.6929;stroke-miterlimit:10;}
	.st4{fill:none;stroke:#232323;stroke-width:51.0236;stroke-miterlimit:10;}

</style>
<rect x="-1130.4" class="st0" width="480" height="480"></rect>
<g id="LINE_1_">
	<polygon class="st1" points="490,265.1 470.1,493.2 241.9,473.3 33.7,265.1 13.8,37 241.9,17 261.9,245.1 	"></polygon>
</g>
<line class="st2" x1="1089.9" y1="364.3" x2="1089.9" y2="146.5"></line>
<line class="st2" x1="667.4" y1="364.3" x2="667.4" y2="146.5"></line>
<polyline class="st3" points="1289.8,146.5 1204.7,146.5 1204.7,364.3 1289.8,364.3 "></polyline>
<line class="st4" x1="796.3" y1="255.4" x2="867.2" y2="255.4"></line>
<line class="st4" x1="1204.7" y1="255.4" x2="1275.6" y2="255.4"></line>
<line class="st3" x1="667.4" y1="364.3" x2="752.4" y2="364.3"></line>
<path class="st3" d="M881.4,146.5h-85l0,217.9c0,0,85,0,85,0s45.4,0,45.4,0c9.8,0,19.1-2,27.6-5.6c8.5-3.6,16.1-8.8,22.5-15.2
	c6.4-6.4,11.6-14,15.2-22.5c3.6-8.5,5.6-17.8,5.6-27.6s-2-19.1-5.6-27.6c-3.6-8.5-8.8-16.1-15.2-22.5c-6.4-6.4-14-11.6-22.5-15.2
	c-5.1-2.2-9.7-5.3-13.5-9.1c-3.8-3.8-7-8.4-9.1-13.5c-2.2-5.1-3.3-10.7-3.3-16.6s1.2-11.5,3.3-16.6s5.3-9.7,9.1-13.5
	c3.8-3.8,8.4-7,13.5-9.1c5.1-2.2,10.7-3.3,16.6-3.3h42.5h147.4"></path>
</svg>
