<?xml version="1.0" encoding="utf-8"?>
<!-- Generator: Adobe Illustrator 24.0.1, SVG Export Plug-In . SVG Version: 6.00 Build 0)  -->
<svg version="1.1" id="Слой_1" xmlns="http://www.w3.org/2000/svg" xmlns:xlink="http://www.w3.org/1999/xlink" x="0px" y="0px"
	 viewBox="0 0 300 300" style="enable-background:new 0 0 300 300;" xml:space="preserve">
<style type="text/css">
	.st0{fill:#F7E509;stroke:#232323;stroke-width:8.5039;stroke-linecap:square;stroke-miterlimit:10;}
	.st1{fill:none;stroke:#232323;stroke-width:8.5039;stroke-linecap:square;stroke-miterlimit:10;}
</style>
<rect x="-754.6" y="130" class="st0" width="120" height="60"/>
<rect x="-594.6" y="70" class="st0" width="120" height="120"/>
<rect x="-364.6" y="40" class="st0" width="90" height="90"/>
<rect x="-210" y="40" class="st0" width="120" height="120"/>
<rect x="-369.3" y="200" class="st0" width="219.3" height="60"/>
<line class="st1" x1="-274.6" y1="70" x2="-210" y2="70"/>
<line class="st1" x1="-319.6" y1="200" x2="-319.6" y2="130"/>
<rect x="40" y="40" class="st0" width="90" height="90"/>
<rect x="170" y="40" class="st0" width="90" height="90"/>
<rect x="40" y="170" class="st0" width="90" height="90"/>
<rect x="170" y="170" class="st0" width="90" height="90"/>
<line class="st1" x1="130" y1="85" x2="170" y2="85"/>
<line class="st1" x1="215" y1="170" x2="215" y2="130"/>
<line class="st1" x1="85" y1="170" x2="85" y2="130"/>
<line class="st1" x1="130" y1="230" x2="170" y2="230"/>
</svg>
